<svg xmlns="http://www.w3.org/2000/svg" viewBox="0 0 286.71 228.01"><defs><style>.cls-1{fill:#c32e89;}.cls-1,.cls-2,.cls-3,.cls-4,.cls-5,.cls-6,.cls-7,.cls-8,.cls-9{fill-rule:evenodd;}.cls-2{fill:#b41378;}.cls-3{fill:#f08800;}.cls-4{fill:#ec6607;}.cls-5{fill:#13110c;}.cls-6{fill:#b81818;}.cls-7{fill:#921914;}.cls-8{fill:#fff;}.cls-9{fill:#ecedef;}</style></defs><g id="Camada_2" data-name="Camada 2"><g id="Camada_1-2" data-name="Camada 1"><path class="cls-1" d="M143.3,0c79.22,0,143.41,51.07,143.41,114.07S222.52,228,143.3,228,0,176.94,0,114.07,64.19,0,143.3,0Z"/><path class="cls-2" d="M143.3,0c79.22,0,143.41,51.07,143.41,114.07S222.52,228,143.3,228Z"/><path class="cls-3" d="M72.78,163.94c-10.74-20.88,3.7-26.85,2.87-67.18C73.5.48,213.1.48,211.07,96.76c-1,40.33,13.48,46.3,2.86,67.18-26.72,52.74-114.42,52.74-141.15,0Z"/><path class="cls-4" d="M143.3,24.58c34.36,0,68.84,24,67.77,72.18-1,40.33,13.48,46.3,2.86,67.18-13.36,26.37-42,39.61-70.63,39.61Z"/><path class="cls-5" d="M104.52,159.52c-17.06-6.32-22.43-8.71-24.34-9.06-.84-.24-1.55,0-1,.95,8.94,13.24,40,39.85,62,39.85s53.09-26.61,62-39.85c.6-.95-.12-1.19-.95-.95-1.91.35-7.28,2.74-24.22,9.06-25.06,9.07-48.68,9.07-73.62,0Z"/><path class="cls-6" d="M104.52,159.52c-1.67-.59-3.1-1.19-4.53-1.67a47.39,47.39,0,0,0-6.45,9c13.6,12,32.7,24.46,47.73,24.46S175.39,178.85,189,166.8a47.39,47.39,0,0,0-6.45-9c-1.43.48-2.86,1.08-4.41,1.67-25.06,9.07-48.68,9.07-73.62,0Z"/><path class="cls-7" d="M143.3,191.14c14.67-1.07,32.81-12.76,45.7-24.34a47.39,47.39,0,0,0-6.45-9c-1.43.48-2.86,1.08-4.41,1.56a105.31,105.31,0,0,1-34.84,6.92Z"/><path class="cls-8" d="M112.87,181.24c2.27,1.31,4.42,2.62,6.68,3.7-.12-2.15-.35-8.23-2.86-8-1.43.12-2.74,2.15-3.82,4.3Zm50.11,3.7c2.27-1.08,4.42-2.39,6.69-3.7-1.08-2.15-2.39-4.18-3.82-4.3-2.39-.23-2.75,5.85-2.87,8Zm14.8-25.42a73.77,73.77,0,0,1-7.28,2.39c1,2.39,3.22,6.92,5.25,5.85,1.79-1,2.15-5.13,2-8.24ZM112,161.91c-2.39-.72-4.9-1.43-7.28-2.39-.12,3.11.24,7.28,2,8.24,2,1.07,4.29-3.46,5.25-5.85Z"/><path class="cls-9" d="M163,184.94c2.27-1.08,4.42-2.39,6.69-3.7-1.08-2.15-2.39-4.18-3.82-4.3-2.39-.23-2.75,5.85-2.87,8Zm14.8-25.42a73.77,73.77,0,0,1-7.28,2.39c1,2.39,3.22,6.92,5.25,5.85,1.79-1,2.15-5.13,2-8.24Z"/><path class="cls-5" d="M133.87,153.68a1.35,1.35,0,0,1,1.31,1.43,1.42,1.42,0,0,1-1.31,1.43,1.45,1.45,0,0,1-1.43-1.43,1.38,1.38,0,0,1,1.43-1.43Z"/><path class="cls-5" d="M152.84,153.68a1.35,1.35,0,0,1,1.32,1.43,1.32,1.32,0,1,1-2.63,0,1.35,1.35,0,0,1,1.31-1.43Z"/><path class="cls-8" d="M91.87,132.08c3.22.6,14.32,2.27,18.14-2.74,4.41-5.85,1.07-52.74-12.29-53.69-15.15-1.08-19.33,53.81-5.85,56.43Z"/><path class="cls-5" d="M93.19,132.32c4.41.72,13.48,1.55,16.82-3,3.58-4.77,2-37-6-49.16-8.35.24-15.15,13.84-15.15,30.66,0,8.36,1.67,16,4.3,21.48Z"/><path class="cls-8" d="M101.54,103.68c-2.15,0-3.82-4.05-3.82-9.18s1.67-9.31,3.82-9.31,3.82,4.18,3.82,9.31-1.68,9.18-3.82,9.18Z"/><path class="cls-8" d="M194.84,132.08c-3.34.6-14.44,2.27-18.25-2.74-4.42-5.85-1-52.74,12.29-53.69,15.27-1.08,19.32,53.81,6,56.43Z"/><path class="cls-5" d="M193.41,132.32c-4.3.72-13.48,1.55-16.82-3-3.58-4.77-1.91-37,6-49.16,8.47.24,15.16,13.84,15.16,30.66,0,8.36-1.68,16-4.3,21.48Z"/><path class="cls-8" d="M185.06,103.68c2.15,0,3.82-4.05,3.82-9.18s-1.67-9.31-3.82-9.31-3.82,4.18-3.82,9.31,1.79,9.18,3.82,9.18Z"/></g></g></svg>