<svg xmlns="http://www.w3.org/2000/svg" viewBox="0 0 149.43 149.43"><defs><style>.cls-1{fill:#fff;}.cls-2{fill:#eb5a5b;}.cls-3{fill:#202121;}</style></defs><g id="Camada_2" data-name="Camada 2"><g id="Camada_1-2" data-name="Camada 1"><circle class="cls-1" cx="74.72" cy="74.72" r="70.43"/><path class="cls-2" d="M4.29,74.72a70.43,70.43,0,1,1,140.85,0"/><path class="cls-3" d="M74.72,149.43a74.72,74.72,0,1,1,74.71-74.71A74.8,74.8,0,0,1,74.72,149.43Zm0-140.85a66.14,66.14,0,1,0,66.13,66.14A66.21,66.21,0,0,0,74.72,8.58Z"/><path class="cls-1" d="M4.29,74.72h0Z"/><rect class="cls-3" x="4.29" y="70.43" width="140.85" height="8.58"/><circle class="cls-1" cx="74.72" cy="74.72" r="25.82"/><path class="cls-3" d="M74.72,104.83a30.12,30.12,0,1,1,30.11-30.11A30.15,30.15,0,0,1,74.72,104.83Zm0-51.65A21.54,21.54,0,1,0,96.25,74.72,21.56,21.56,0,0,0,74.72,53.18Z"/><circle class="cls-1" cx="74.72" cy="74.72" r="10.98"/><path class="cls-3" d="M74.72,90A15.27,15.27,0,1,1,90,74.72,15.29,15.29,0,0,1,74.72,90Zm0-22a6.69,6.69,0,1,0,6.68,6.69A6.7,6.7,0,0,0,74.72,68Z"/><path class="cls-1" d="M32.59,50.29,25.16,46A57.37,57.37,0,0,1,50,22.94l3.72,7.73A48.75,48.75,0,0,0,32.59,50.29Z"/></g></g></svg>